<svg width="75" height="75" viewBox="0 0 75 75" fill="none" xmlns="http://www.w3.org/2000/svg">
<g clip-path="url(#clip0)">
<path d="M48.7327 12.8792L29.0859 32.5259L44.6256 48.0655L54.091 57.5315L73.7377 37.8848L48.7327 12.8792Z" fill="#BDDBFF"/>
<path d="M38.9089 22.7028L51.412 10.1997L47.8396 6.62787L22.834 31.6329L26.407 35.2047L38.9089 22.7028Z" fill="#BDDBFF"/>
<path d="M29.0859 32.5258L38.909 22.7028L29.0859 32.5258Z" fill="#BDDBFF"/>
<path d="M24.2271 46.9752C24.7111 47.6863 25.0707 48.4744 25.2908 49.3057C25.527 50.1752 25.6029 51.0805 25.5141 51.9765L44.6255 48.0618L39.4547 42.891L24.2271 46.9752Z" fill="#BDDBFF"/>
<path d="M25.2957 49.3056C24.7827 47.36 23.5148 45.6993 21.7727 44.6917C20.0306 43.6846 17.9591 43.4139 16.0166 43.9393L19.9319 58.5755C22.9924 57.764 25.2211 55.1295 25.514 51.9765C25.6047 51.0804 25.5307 50.1752 25.2957 49.3056Z" fill="#BDDBFF"/>
<path d="M74.6303 36.9919L66.5937 28.9541L72.8456 22.7028C73.3389 22.2095 73.3389 21.4103 72.8456 20.9169L60.3425 8.41381C59.8491 7.92047 59.0499 7.92047 58.5566 8.41381L52.3047 14.6651L50.5194 12.8792L52.3047 11.0927C52.798 10.5993 52.798 9.79949 52.3047 9.30676L48.7323 5.73497C48.2309 5.26136 47.4471 5.26136 46.9464 5.73497L21.9395 30.7412C21.4468 31.2346 21.4468 32.0338 21.9395 32.5271L25.5125 36.0989C26.0059 36.5916 26.8051 36.5916 27.2984 36.0989L29.0843 34.3118L37.0129 42.2404L24.6893 45.5446C22.4803 42.9514 18.9813 41.8531 15.687 42.7183C15.3626 42.8041 15.0858 43.0162 14.918 43.3066C14.7497 43.5971 14.704 43.9424 14.7916 44.2662L18.7063 58.903C18.8543 59.4556 19.3544 59.8398 19.9267 59.8398C20.0364 59.8385 20.1462 59.8237 20.2523 59.796C23.4769 58.9271 25.935 56.313 26.6053 53.0415L44.2071 49.4383L53.1927 58.4239C53.686 58.9172 54.4853 58.9172 54.9786 58.4239L74.6303 38.7778C75.123 38.2844 75.123 37.4852 74.6303 36.9919ZM59.4495 11.0927L70.1655 21.8099L64.8072 27.1676L54.0906 16.451L59.4495 11.0927ZM26.4067 33.4188L24.6208 31.6329L47.8393 8.41381L49.6265 10.1997L26.4067 33.4188ZM20.7919 56.9099L17.5913 44.9575C19.8058 44.8274 21.9266 45.864 23.1852 47.6906C23.5873 48.2826 23.8864 48.9394 24.0689 49.6313C24.2681 50.3571 24.331 51.1132 24.2545 51.8618C24.0516 54.0294 22.7412 55.9374 20.7919 56.9062V56.9099ZM42.0709 47.3015L26.773 50.4299C26.773 50.4021 26.7619 50.3756 26.7576 50.3479C26.7101 49.8841 26.6256 49.4259 26.5054 48.9758C26.3956 48.5687 26.2581 48.1698 26.0947 47.7813L39.0733 44.3032L42.0709 47.3015ZM54.0906 55.7456L30.8715 32.5247L48.7335 14.6651L71.9514 37.8848L54.0906 55.7456Z" fill="#3D9AE2"/>
<path d="M15.4734 60.1758C15.0972 60.0001 14.6594 60.0204 14.3011 60.2301C13.0443 60.9652 10.0528 62.8343 9.37571 64.2971C8.51236 66.189 9.33562 68.4233 11.2208 69.3026C13.1054 70.182 15.3464 69.3779 16.2424 67.5007C16.9257 66.0373 16.433 62.5439 16.1894 61.1107C16.1191 60.7 15.8514 60.3503 15.4734 60.1758ZM13.9478 66.4339C13.6524 67.0647 12.9019 67.3379 12.2704 67.0438C11.9651 66.9031 11.7283 66.6466 11.613 66.3303C11.4977 66.0145 11.5125 65.6661 11.6549 65.3615C12.3117 64.6023 13.085 63.9524 13.9465 63.4368C14.1069 64.429 14.1069 65.441 13.9478 66.4339Z" fill="#3D9AE2"/>
<path d="M7.13434 57.5513C5.70303 57.814 2.25272 58.5454 1.11002 59.6869C-0.370006 61.1669 -0.370006 63.5664 1.11002 65.0458C2.58943 66.5258 4.98892 66.5258 6.46833 65.0458C7.60548 63.9031 8.34179 60.4528 8.6045 59.0215C8.67912 58.6132 8.54838 58.1945 8.25484 57.901C7.9613 57.6074 7.54258 57.4767 7.13434 57.5513ZM4.6812 63.2611C4.18786 63.7551 3.38802 63.7551 2.89468 63.2611C2.40072 62.7678 2.40072 61.9679 2.89468 61.474C3.7716 60.9862 4.72005 60.6402 5.7055 60.4497C5.51494 61.4351 5.16961 62.3842 4.6812 63.2611Z" fill="#3D9AE2"/>
<path d="M6.40654 54.207C6.84746 54.207 7.2853 54.13 7.69971 53.9789C9.2155 53.4269 11.3381 50.6075 12.1792 49.4216C12.4198 49.0837 12.479 48.6483 12.3371 48.2586C12.1947 47.8682 11.8703 47.5728 11.4682 47.468C10.0616 47.1017 6.62484 46.3062 5.1072 46.8581C3.37866 47.4871 2.35189 49.2668 2.67194 51.078C2.99262 52.8892 4.56699 54.2089 6.40654 54.207ZM5.25829 49.8854C5.39889 49.5813 5.65481 49.3464 5.96931 49.2323C6.12225 49.1935 6.28012 49.1768 6.43799 49.183C7.28222 49.2169 8.12275 49.3199 8.95033 49.4913C8.36202 50.3041 7.64791 51.0176 6.83451 51.6053C6.35474 51.7798 5.817 51.6478 5.47227 51.2717C5.12755 50.8955 5.04307 50.3479 5.25829 49.8854Z" fill="#3D9AE2"/>
</g>
<defs>
<clipPath id="clip0">
<rect width="75" height="75" fill="white"/>
</clipPath>
</defs>
</svg>
